<svg xmlns="http://www.w3.org/2000/svg" width="256.284" height="303.834" viewBox="0 0 256.284 303.834">
  <g id="a3" transform="translate(-680.059 -8934.459)">
    <circle id="Ellipse_5118" data-name="Ellipse 5118" cx="90.61" cy="90.61" r="90.61" transform="translate(680.059 9110.151) rotate(-45)" fill="#fff"/>
    <g id="Group_878109" data-name="Group 878109" transform="translate(112.665 8861.93)">
      <g id="Group_878084" data-name="Group 878084" transform="translate(685.059 72.529)">
        <path id="Path_619409" data-name="Path 619409" d="M713.486,80.763s-12.163,10.85-15.453,22.19c0,0,.661-12.985-4.272-20.384,0,0-1.975-2.956-2.8,0s1.316,3.618,1.974,19.892,2.633,20.382.822,38.136-6.576,39.454-9.042,54.08-1.313,24.494,2.795,45.373,11.18,36.493,11.013,44.874-4.6,22.847-.495,31.071a59.474,59.474,0,0,1,.661-19.4c2.135-10.356,3.614-17.588-2.467-40.109s-7.562-39.614-2.8-65.917,8.547-45.863,7.889-58.849,2.138-30.412,11.834-43.4,11.671-14.136,11.671-14.136,2.962-2.137-.822-.657S713.486,80.763,713.486,80.763Z" transform="translate(-682.93 -72.514)" fill="#5b9834"/>
        <path id="Path_619410" data-name="Path 619410" d="M698.048,316.5a.5.5,0,0,1-.441-.275c-2.911-5.827-1.655-14.551-.543-22.251a80.234,80.234,0,0,0,.984-9.045c.088-4.348-1.834-10.76-4.264-18.877-2.135-7.138-4.8-16.013-6.739-25.9-4.232-21.5-5.234-31.1-2.795-45.544.745-4.454,1.719-9.579,2.741-15.009,2.358-12.518,5.035-26.708,6.291-39.042a112.109,112.109,0,0,0,.06-25.179c-.312-3.565-.67-7.6-.883-12.884A85.852,85.852,0,0,0,690.7,86.519c-.377-1.8-.569-2.708-.189-4.065.306-1.112.832-1.676,1.564-1.676,1.04,0,1.94,1.278,2.114,1.532,3.564,5.348,4.269,13.4,4.376,17.716,4.185-10.237,14.151-19.206,14.607-19.614.287-.247,6.856-5.836,10.672-7.326a5.813,5.813,0,0,1,1.925-.557.616.616,0,0,1,.643.412c.073.225.195.6-1.276,1.662-.119.073-2.221,1.521-11.567,14.031-12.1,16.2-12.039,37.066-11.736,43.075.613,12.156-2.553,29.557-6.929,53.647l-.967,5.312c-5.029,27.726-2.784,45.083,2.783,65.7,6.12,22.662,4.59,30.075,2.473,40.334a59.61,59.61,0,0,0-.672,19.1.493.493,0,0,1-.451.7ZM692.072,81.764c-.22,0-.451.358-.616.954-.312,1.125-.16,1.847.208,3.6a87.252,87.252,0,0,1,1.782,16.14c.211,5.257.566,9.285.88,12.836a113.388,113.388,0,0,1-.062,25.369c-1.26,12.376-3.942,26.586-6.3,39.123-1.024,5.423-1.991,10.55-2.739,14.991-2.407,14.292-1.415,23.821,2.789,45.189,1.941,9.837,4.587,18.691,6.721,25.8,2.452,8.207,4.393,14.686,4.3,19.186a81.319,81.319,0,0,1-1,9.157c-.833,5.759-1.744,12.109-.906,17.256a61,61,0,0,1,1.089-14.856c2.093-10.129,3.6-17.447-2.456-39.883-5.608-20.75-7.865-38.226-2.8-66.131l.965-5.312c4.371-24.026,7.526-41.383,6.916-53.422-.309-6.092-.363-27.259,11.932-43.717,8.128-10.886,10.89-13.522,11.609-14.109-.059.021-.121.046-.186.07-3.662,1.432-10.31,7.091-10.378,7.149-.115.1-12.087,10.881-15.3,21.953a.492.492,0,0,1-.965-.161c0-.131.588-12.911-4.193-20.085C693.067,82.419,692.455,81.764,692.072,81.764Z" transform="translate(-682.945 -72.529)" fill="#528c45"/>
      </g>
      <path id="Path_619411" data-name="Path 619411" d="M698.464,138.765a28.554,28.554,0,0,0-1.966-4.713,32.7,32.7,0,0,0-2.354-3.736c-.106,2.492-.3,5.261-.635,8.514-.467,4.591-1.136,9.448-1.907,14.379a14.905,14.905,0,0,0,3.437-2.6,12.428,12.428,0,0,0,3.619-9.873C698.627,140.065,698.554,139.412,698.464,138.765Z" transform="translate(2.382 1.783)" fill="#4a7d2a" opacity="0.7" style="mix-blend-mode: multiply;isolation: isolate"/>
      <path id="Path_619412" data-name="Path 619412" d="M692.745,102.786a2.5,2.5,0,0,0,3.056.84,3.654,3.654,0,0,0,2.036-1.772c.048-3-.124-13.268-4.3-19.531,0,0-1.975-2.956-2.8,0s1.316,3.618,1.974,19.892C692.728,102.408,692.737,102.6,692.745,102.786Z" transform="translate(2.349 0.262)" fill="#84bc32"/>
      <g id="Group_878107" data-name="Group 878107" transform="translate(614.394 190.629)">
        <g id="Group_878085" data-name="Group 878085" transform="translate(112.31 42.141)">
          <path id="Path_619413" data-name="Path 619413" d="M749.335,232.837c-7.712-5.141-15.637-4.449-24.574-4.213-.45.011-1.39.917-.683,1.22,3.45,1.485,7.956.332,11.668.428a34.276,34.276,0,0,1,13.206,3.121C749.225,233.512,749.619,233.028,749.335,232.837Z" transform="translate(-723.329 -227.96)" fill="#fadfb4"/>
          <path id="Path_619414" data-name="Path 619414" d="M749.057,233.921h0a1.336,1.336,0,0,1-.293-.057,33.825,33.825,0,0,0-13.015-3.087,36.218,36.218,0,0,0-3.662.163c-1.147.09-2.334.18-3.492.18a11.619,11.619,0,0,1-4.7-.805.839.839,0,0,1-.535-.956,1.722,1.722,0,0,1,1.4-1.209l2.036-.063c1.823-.056,3.541-.112,5.261-.112,5.645,0,11.681.54,17.564,4.467a.714.714,0,0,1,.281.815A.938.938,0,0,1,749.057,233.921Zm-13.746-4.135c.157,0,.311,0,.461.006a34.009,34.009,0,0,1,11.519,2.391c-5.1-2.8-10.312-3.217-15.229-3.217-1.706,0-3.416.051-5.227.106l-2.047.062a.961.961,0,0,0-.4.315,10.905,10.905,0,0,0,4.21.68c1.122,0,2.289-.085,3.419-.174C733.111,229.871,734.247,229.786,735.311,229.786Z" transform="translate(-723.344 -227.975)" fill="#cc9263"/>
        </g>
        <g id="Group_878086" data-name="Group 878086" transform="translate(97.357 35.881)">
          <path id="Path_619415" data-name="Path 619415" d="M728.465,250.461c-5.467-3.51-9.5-9.383-12.324-15.08-2.05-4.134-2.047-9.426-5.341-12.846-.537-.563-1.785.563-1.414,1.175,3.015,5.006,3.8,10.771,6.846,15.829a31.25,31.25,0,0,0,11.75,11.62C728.313,251.327,728.822,250.691,728.465,250.461Z" transform="translate(-708.824 -221.887)" fill="#fadfb4"/>
          <path id="Path_619416" data-name="Path 619416" d="M728.114,251.7a.769.769,0,0,1-.349-.085A31.6,31.6,0,0,1,715.822,239.8a42.753,42.753,0,0,1-3.476-8.027,41.978,41.978,0,0,0-3.372-7.8,1.124,1.124,0,0,1,.047-1.147,1.82,1.82,0,0,1,1.426-.929.983.983,0,0,1,.723.3c2.117,2.2,2.926,5.124,3.707,7.959a28,28,0,0,0,1.724,5.011c3.414,6.89,7.5,11.9,12.143,14.883a.765.765,0,0,1,.309.882A1.048,1.048,0,0,1,728.114,251.7Zm-17.655-28.8a.765.765,0,0,0-.49.3.464.464,0,0,0-.143.287,42.768,42.768,0,0,1,3.448,7.964,42.13,42.13,0,0,0,3.395,7.852,31.51,31.51,0,0,0,10.242,10.7c-4.258-3.145-8.018-7.971-11.2-14.377a29.32,29.32,0,0,1-1.788-5.186c-.781-2.84-1.518-5.517-3.458-7.537Z" transform="translate(-708.838 -221.902)" fill="#cc9263"/>
        </g>
        <g id="Group_878087" data-name="Group 878087" transform="translate(0 40.148)">
          <path id="Path_619417" data-name="Path 619417" d="M642.45,226.519c-9.582,2.986-24.648,8.476-27.566,19.652-.1.389.441.169.534-.034,4.916-10.568,15.6-12,24.9-17.071C640.574,228.926,643,226.344,642.45,226.519Z" transform="translate(-614.38 -226.027)" fill="#fadfb4"/>
          <path id="Path_619418" data-name="Path 619418" d="M615.02,246.894h0a.616.616,0,0,1-.5-.236.689.689,0,0,1-.1-.6c2.879-11.025,17.3-16.694,27.9-20a.6.6,0,0,1,.7.366c.186.742-2.43,3.071-2.461,3.087a83.7,83.7,0,0,1-7.664,3.549c-6.941,2.947-13.5,5.726-17.019,13.3A1.033,1.033,0,0,1,615.02,246.894Zm26.253-19.466c-8.859,2.852-19.857,7.368-24.335,15.108,3.858-5.411,9.579-7.835,15.578-10.378,2.514-1.063,5.11-2.166,7.576-3.51A15.42,15.42,0,0,0,641.272,227.427Z" transform="translate(-614.394 -226.042)" fill="#cc9263"/>
        </g>
        <g id="Group_878088" data-name="Group 878088" transform="translate(34.81 28.761)">
          <path id="Path_619419" data-name="Path 619419" d="M665.848,215.548a6.969,6.969,0,0,0-1.6.973.438.438,0,0,0-.278.09c-2.858,1.9-3.985,4.747-4.558,7.88a34.055,34.055,0,0,0-.872,3.595c-1.6,8.189-3.774,14.635-9.655,20.794-.6.625.031,1.26.667.669.2-.186.388-.376.585-.562,4.081-2.7,6.75-6.693,8.893-11.069,3.33-6.812,3.1-15.024,7.54-21.3C667,216,666.644,215.205,665.848,215.548Z" transform="translate(-648.148 -214.981)" fill="#fadfb4"/>
          <path id="Path_619420" data-name="Path 619420" d="M649.059,250.3h0a.879.879,0,0,1-.822-.535,1.114,1.114,0,0,1,.3-1.209c5.785-6.057,7.936-12.357,9.528-20.547a35.634,35.634,0,0,1,.882-3.639c.476-2.615,1.463-5.956,4.759-8.15a1.076,1.076,0,0,1,.357-.158,7.167,7.167,0,0,1,1.6-.945,1.094,1.094,0,0,1,1.468.423,1.337,1.337,0,0,1-.152,1.383c-2.466,3.487-3.487,7.706-4.477,11.789a45.511,45.511,0,0,1-3.023,9.438c-2.646,5.4-5.442,8.876-9.064,11.266l-.151.163c-.124.113-.242.231-.366.349A1.238,1.238,0,0,1,649.059,250.3Zm15.164-33.264c-2.295,1.558-3.639,3.886-4.314,7.565a36.8,36.8,0,0,0-.872,3.594c-1.577,8.111-3.7,14.41-9.24,20.462l.011-.01c3.538-2.34,6.226-5.7,8.791-10.929a45.227,45.227,0,0,0,2.952-9.235c1.013-4.174,2.053-8.488,4.63-12.133.132-.186.1-.342.073-.365a.413.413,0,0,0-.2.039,6.292,6.292,0,0,0-1.485.9A.492.492,0,0,1,664.223,217.031Z" transform="translate(-648.163 -214.995)" fill="#cc9263"/>
        </g>
        <g id="Group_878089" data-name="Group 878089" transform="translate(82.262 19.474)">
          <path id="Path_619421" data-name="Path 619421" d="M720.862,216.536c-7.255-6.58-18.532-3.2-25.338-10-.327-.326-1,.307-.822.681,1.375,2.887,3.549,4.161,6.657,4.857,6.578,1.474,13.151.934,18.851,5.119C720.542,217.436,721.183,216.823,720.862,216.536Z" transform="translate(-694.181 -205.972)" fill="#fadfb4"/>
          <path id="Path_619422" data-name="Path 619422" d="M720.4,217.753a.774.774,0,0,1-.467-.152c-3.927-2.88-8.265-3.465-12.858-4.078-1.9-.254-3.859-.517-5.811-.95-3.571-.8-5.658-2.333-6.991-5.132a.915.915,0,0,1,.093-.892,1.027,1.027,0,0,1,1.522-.348c3.344,3.341,7.762,4.137,12.433,4.982,4.529.815,9.208,1.665,12.892,5a.757.757,0,0,1,.186.861A1.126,1.126,0,0,1,720.4,217.753Zm-25.126-10.767a.4.4,0,0,0-.095.127c1.187,2.433,3.014,3.762,6.3,4.492,1.912.428,3.847.687,5.725.939,4.525.608,8.809,1.181,12.788,3.892-3.391-2.755-7.686-3.532-11.845-4.285C703.564,211.33,698.829,210.469,695.273,206.986Z" transform="translate(-694.195 -205.986)" fill="#cc9263"/>
        </g>
        <g id="Group_878090" data-name="Group 878090" transform="translate(91.926 72.034)">
          <path id="Path_619423" data-name="Path 619423" d="M733.493,258.919c-9.349-3.094-19.976.044-29.355-1.468-.354-.057.512.573.833.894,2.576,2.519,6.384,1.614,9.646,1.1a58.959,58.959,0,0,1,18.579.011C733.413,259.487,733.78,259.014,733.493,258.919Z" transform="translate(-703.555 -256.959)" fill="#fadfb4"/>
          <path id="Path_619424" data-name="Path 619424" d="M709.713,260.537a6.863,6.863,0,0,1-5.071-1.829c-.09-.085-.22-.2-.355-.309-.531-.449-.827-.7-.68-1.085a.608.608,0,0,1,.625-.332,38.872,38.872,0,0,0,6.22.433c2.031,0,4.14-.1,6.171-.2,2.07-.1,4.207-.2,6.3-.2a33.667,33.667,0,0,1,10.735,1.451.623.623,0,0,1,.436.714.967.967,0,0,1-.864.781h0a.571.571,0,0,1-.1-.011,58.012,58.012,0,0,0-18.423-.011l-.844.141A25.844,25.844,0,0,1,709.713,260.537Zm-4.228-2.391a5.923,5.923,0,0,0,4.228,1.406,25.029,25.029,0,0,0,3.99-.444l.849-.141a58.388,58.388,0,0,1,15.4-.415,39.508,39.508,0,0,0-7.025-.546c-2.072,0-4.2.1-6.257.2s-4.159.2-6.212.2A42.7,42.7,0,0,1,705.485,258.146Z" transform="translate(-703.57 -256.974)" fill="#cc9263"/>
        </g>
        <g id="Group_878091" data-name="Group 878091" transform="translate(113.753 82.932)">
          <path id="Path_619425" data-name="Path 619425" d="M732.249,278.087c-1.513-3.622-1.85-7.346-4.931-9.95-.337-.281-2.36.011-2.067.343,5.622,6.536,6.381,16.322,13.412,21.846C738.912,290.518,734.142,282.615,732.249,278.087Z" transform="translate(-724.728 -267.53)" fill="#fadfb4"/>
          <path id="Path_619426" data-name="Path 619426" d="M738.687,290.836a.906.906,0,0,1-.312-.106c-4.067-3.2-6.094-7.8-8.062-12.262-1.482-3.369-3.021-6.857-5.423-9.647a.583.583,0,0,1-.092-.63c.283-.624,1.763-.646,1.932-.646a1.407,1.407,0,0,1,.923.23c2.326,1.964,3.141,4.478,4,7.132.317.99.649,2.008,1.066,3,1.294,3.094,3.965,7.823,5.4,10.366,1.153,2.041,1.153,2.041.99,2.317A.488.488,0,0,1,738.687,290.836ZM726,268.6a40.779,40.779,0,0,1,5.222,9.466c1.572,3.567,3.071,6.97,5.509,9.743a106.116,106.116,0,0,1-4.913-9.523c-.433-1.029-.77-2.07-1.1-3.071-.815-2.519-1.586-4.9-3.683-6.677a2.332,2.332,0,0,1-.3-.011A4.064,4.064,0,0,0,726,268.6Z" transform="translate(-724.743 -267.545)" fill="#cc9263"/>
        </g>
        <g id="Group_878092" data-name="Group 878092" transform="translate(132.264 89.294)">
          <path id="Path_619427" data-name="Path 619427" d="M749.733,285.255a35.927,35.927,0,0,1-3.3-5.484c-.846-1.783-1.44-3.74-2.413-5.445-.236-.41-.905.1-.843.473C744.193,281.019,749.941,285.547,749.733,285.255Z" transform="translate(-742.686 -273.702)" fill="#fadfb4"/>
          <path id="Path_619428" data-name="Path 619428" d="M749.751,285.781h0c-.593-.006-6.057-4.86-7.037-10.89a.954.954,0,0,1,.247-.776.922.922,0,0,1,1.508-.017,25.422,25.422,0,0,1,1.5,3.29c.295.726.6,1.479.931,2.182a35.14,35.14,0,0,0,3.248,5.416.51.51,0,0,1,.044.524A.5.5,0,0,1,749.751,285.781Zm-6.044-11.025c-.011.018-.023.028-.023.045a15.686,15.686,0,0,0,3.082,6.682c-.264-.49-.518-.984-.754-1.491-.348-.731-.658-1.5-.959-2.239A27.794,27.794,0,0,0,743.707,274.756Z" transform="translate(-742.7 -273.717)" fill="#cc9263"/>
        </g>
        <g id="Group_878093" data-name="Group 878093" transform="translate(100.981 99.889)">
          <path id="Path_619429" data-name="Path 619429" d="M721.534,311.137a56.351,56.351,0,0,1-4.348-16.154c-.512-3.813-.827-7.538-3.614-10.422-.29-.3-.853.269-.719.6,3.633,8.848,2.117,18.365,8.077,26.481C721.126,311.912,721.652,311.406,721.534,311.137Z" transform="translate(-712.339 -283.98)" fill="#fadfb4"/>
          <path id="Path_619430" data-name="Path 619430" d="M721.094,312.226h0a.679.679,0,0,1-.551-.281c-3.606-4.916-4.539-10.412-5.439-15.732a50.7,50.7,0,0,0-2.692-10.856.891.891,0,0,1,.127-.849,1.077,1.077,0,0,1,.855-.512.76.76,0,0,1,.551.237c2.716,2.806,3.186,6.435,3.644,9.938l.1.76a55.827,55.827,0,0,0,4.306,16.018.8.8,0,0,1-.1.782A1.016,1.016,0,0,1,721.094,312.226Zm-7.743-27.167a51.277,51.277,0,0,1,2.726,10.99c.863,5.085,1.681,9.912,4.612,14.377a58.129,58.129,0,0,1-3.98-15.361l-.1-.771c-.447-3.437-.869-6.688-3.248-9.247Z" transform="translate(-712.353 -283.995)" fill="#cc9263"/>
        </g>
        <g id="Group_878094" data-name="Group 878094" transform="translate(53.105 75.479)">
          <path id="Path_619431" data-name="Path 619431" d="M670.557,276.9a32.618,32.618,0,0,0-1.128-6.638,36.252,36.252,0,0,1-.932-9.365c-.005-.415-1.172.524-1.253.732-1.474,3.723-.83,6.108.281,9.933,1.574,5.427,2.238,10.169,1.232,15.8-.115.631.736.31.879-.062C670.877,284.115,670.708,280.256,670.557,276.9Z" transform="translate(-665.896 -260.3)" fill="#fadfb4"/>
          <path id="Path_619432" data-name="Path 619432" d="M669.008,288.224h0a.72.72,0,0,1-.571-.253.789.789,0,0,1-.149-.687c.895-4.994.54-9.505-1.221-15.569-1.063-3.656-1.834-6.3-.267-10.259a2.73,2.73,0,0,1,1.611-1.142.585.585,0,0,1,.6.591,36.2,36.2,0,0,0,.911,9.247,33.114,33.114,0,0,1,1.141,6.739c.153,3.245.34,7.289-.947,10.6A1.29,1.29,0,0,1,669.008,288.224Zm-.979-26.655a2.049,2.049,0,0,0-.343.314c-1.406,3.578-.72,5.957.327,9.557,1.7,5.849,2.12,10.3,1.395,15.1.976-3,.8-6.648.669-9.6a32.366,32.366,0,0,0-1.11-6.542A34.714,34.714,0,0,1,668.028,261.57Z" transform="translate(-665.91 -260.315)" fill="#cc9263"/>
        </g>
        <g id="Group_878095" data-name="Group 878095" transform="translate(26.392 66.077)">
          <path id="Path_619433" data-name="Path 619433" d="M675.247,251.712a.257.257,0,0,0-.225.033c-10.338,6.649-28.244,6.164-34.493,18.184-.239.467.374.569.63.27a25.2,25.2,0,0,1,6.433-5.31c1.152-.612,2.362-1.164,3.515-1.7.788-.365,1.592-.7,2.4-1.012a73.36,73.36,0,0,1,8.341-2.345c4.911-1.142,11.129-2.475,14.084-6.986C676.528,251.937,675.917,251.537,675.247,251.712Z" transform="translate(-639.982 -251.18)" fill="#fadfb4"/>
          <path id="Path_619434" data-name="Path 619434" d="M640.795,270.878h0a.8.8,0,0,1-.7-.365.786.786,0,0,1,.011-.794c4.034-7.756,12.74-10.411,21.165-12.981,5-1.53,9.731-2.97,13.494-5.393a.807.807,0,0,1,.422-.125.154.154,0,0,1,.048.006,1.2,1.2,0,0,1,1.325.5,1.307,1.307,0,0,1-.2,1.4c-2.989,4.561-9.105,5.979-14.019,7.11l-.363.085a75.54,75.54,0,0,0-8.287,2.328c-.914.361-1.668.675-2.358,1l-.526.241c-.984.456-2,.934-2.964,1.446a24.52,24.52,0,0,0-6.294,5.2A1.01,1.01,0,0,1,640.795,270.878Zm34.443-18.662c-3.873,2.475-8.856,3.993-13.674,5.461-7.714,2.357-15.678,4.787-19.807,11.171a25.487,25.487,0,0,1,5.6-4.371c1.006-.54,2.041-1.012,3.037-1.479l.521-.247c.708-.327,1.476-.653,2.427-1.024a77.609,77.609,0,0,1,8.412-2.368l.368-.085c4.737-1.092,10.636-2.459,13.409-6.688a.689.689,0,0,0,.161-.394.982.982,0,0,0-.135-.016,1.039,1.039,0,0,0-.174.023A.327.327,0,0,1,675.238,252.216Z" transform="translate(-639.997 -251.195)" fill="#cc9263"/>
        </g>
        <g id="Group_878096" data-name="Group 878096" transform="translate(12.298 31.669)">
          <path id="Path_619435" data-name="Path 619435" d="M656.217,219.089a.221.221,0,0,0-.166-.039c-9.084,1.559-21.3-4.021-29.141,2.447-.3.247.095.5.357.371a18.688,18.688,0,0,1,6-1.783c.973-.085,1.966-.112,2.924-.146.651-.023,1.3-.011,1.952.006a55.9,55.9,0,0,1,6.446.821c3.72.659,8.408,1.559,11.766-.692C657.03,219.624,656.729,219.168,656.217,219.089Z" transform="translate(-626.31 -217.801)" fill="#fadfb4"/>
          <path id="Path_619436" data-name="Path 619436" d="M627.124,222.411a.786.786,0,0,1-.762-.5.705.705,0,0,1,.25-.788c2.744-2.261,6.241-3.312,11-3.312a71.855,71.855,0,0,1,7.507.529,70.586,70.586,0,0,0,7.175.517,22.135,22.135,0,0,0,3.689-.281.731.731,0,0,1,.425.056,1.028,1.028,0,0,1,.83.737c.051.242.044.7-.594,1.125a10.127,10.127,0,0,1-5.808,1.519,35.593,35.593,0,0,1-6.041-.7l-.278-.051a55.083,55.083,0,0,0-6.387-.815c-.619-.018-1.265-.029-1.906-.006l-.394.011c-.827.029-1.676.057-2.5.13a18.217,18.217,0,0,0-5.824,1.738A.871.871,0,0,1,627.124,222.411Zm9.969-2.965q.541,0,1.078.016a56.486,56.486,0,0,1,6.515.833l.279.051a34.609,34.609,0,0,0,5.869.687,9.223,9.223,0,0,0,5.262-1.356c.042-.028.075-.057.1-.079-.011,0-.029-.005-.045-.005a.685.685,0,0,1-.107-.028,22.67,22.67,0,0,1-3.756.28,71.684,71.684,0,0,1-7.279-.517,70.656,70.656,0,0,0-7.4-.534,17.571,17.571,0,0,0-8.246,1.694,19.58,19.58,0,0,1,3.85-.878c.877-.078,1.741-.106,2.579-.135l.394-.011C636.486,219.452,636.79,219.447,637.093,219.447Z" transform="translate(-626.324 -217.816)" fill="#cc9263"/>
        </g>
        <g id="Group_878097" data-name="Group 878097" transform="translate(11.509 6.936)">
          <path id="Path_619437" data-name="Path 619437" d="M686.819,194.345a2.594,2.594,0,0,0-1.232,1.235c-.374.863-2.962,11.466-11.1,16.149s-27.37,10.237-37.6,19.354-10.85,17.881-10.85,17.881,0,1.108.495.49,2.838-13.684,18.368-22.066,33.658-11.221,40.07-22.564C684.969,204.824,690.269,193.485,686.819,194.345Z" transform="translate(-625.544 -193.808)" fill="#fadfb4"/>
          <path id="Path_619438" data-name="Path 619438" d="M626.29,250.149h0c-.22,0-.731-.112-.731-1.17.028-.405.747-9.1,11.013-18.246,6.82-6.081,17.676-10.614,26.4-14.265a111.379,111.379,0,0,0,11.291-5.151c4.711-2.716,8.305-7.854,10.673-15.284.1-.314.174-.534.213-.633a3.094,3.094,0,0,1,1.491-1.49,1.918,1.918,0,0,1,.54-.088,1.18,1.18,0,0,1,1.035.552c1.214,1.9-2.1,9.227-2.781,10.675-4.379,7.752-14.141,11.638-24.478,15.762a149.21,149.21,0,0,0-15.8,7.025,35.964,35.964,0,0,0-17.821,20.941,3.423,3.423,0,0,1-.4,1A.871.871,0,0,1,626.29,250.149Zm60.667-55.311a2.219,2.219,0,0,0-.9.95c-.036.088-.1.275-.182.545-2.447,7.67-6.187,13-11.12,15.838a111.14,111.14,0,0,1-11.407,5.209C654.692,221,643.924,225.5,637.23,231.47c-6.823,6.081-9.308,12.032-10.2,15.2a36.956,36.956,0,0,1,17.652-19.7,150.157,150.157,0,0,1,15.907-7.076c10.171-4.049,19.776-7.88,23.966-15.295,1.569-3.366,3.5-8.633,2.824-9.7C687.333,194.827,687.219,194.777,686.957,194.838Z" transform="translate(-625.559 -193.823)" fill="#cc9263"/>
        </g>
        <g id="Group_878098" data-name="Group 878098" transform="translate(44.929 37.889)">
          <path id="Path_619439" data-name="Path 619439" d="M687.287,224.539c-.855-.625-1.434.207-1.552,1.551-.244,2.875,1.232,9.45-6.244,19.068-5.675,7.3-25.727,24.906-20.057,46.4,0,0,.5,1.233.991.613s-4.561-10.845,8.383-29.338,18.615-21.452,19.723-30.7c.259-2.2.754-5.266-.788-7.144A2.575,2.575,0,0,0,687.287,224.539Z" transform="translate(-657.965 -223.835)" fill="#fadfb4"/>
          <path id="Path_619440" data-name="Path 619440" d="M660.146,292.854h0c-.664,0-1.049-.844-1.156-1.1-4.891-18.533,9.157-34.371,16.7-42.882,1.381-1.558,2.574-2.9,3.429-3.994,6.187-7.953,6.137-13.69,6.111-17.116-.008-.651-.008-1.214.031-1.7.122-1.384.675-2.211,1.5-2.211a1.418,1.418,0,0,1,.84.309,3.029,3.029,0,0,1,.546.535c1.569,1.918,1.206,4.893.947,7.071l-.051.438c-.745,6.182-3.459,9.6-8.872,16.4-2.88,3.622-6.46,8.128-10.943,14.529-10.737,15.338-8.977,24.81-8.4,27.927.151.827.213,1.164-.005,1.44A.848.848,0,0,1,660.146,292.854Zm26.61-68.019c-.143,0-.433.389-.512,1.316-.036.428-.033.973-.028,1.6.028,3.323.076,9.505-6.322,17.728-.874,1.125-2.07,2.475-3.465,4.049-7.88,8.882-21.022,23.7-16.618,41.471-.63-3.442-2.112-13.128,8.6-28.433,4.5-6.428,8.093-10.951,10.982-14.578,5.292-6.654,7.953-10,8.659-15.9l.057-.444c.253-2.109.568-4.736-.732-6.327a2.634,2.634,0,0,0-.365-.366A.6.6,0,0,0,686.756,224.834Z" transform="translate(-657.979 -223.85)" fill="#cc9263"/>
        </g>
        <g id="Group_878099" data-name="Group 878099" transform="translate(70.81 66.651)">
          <path id="Path_619441" data-name="Path 619441" d="M692.564,252.229a27.3,27.3,0,0,0-1.232,3.577,25.367,25.367,0,0,1-4.072,7.891c-2.216,3.082-4.438,11.216-3.448,13.561,0,0,.244,1.108.619-.247s-.742-5.18,3.7-10.973,5.917-5.793,6.041-9.613S692.564,252.229,692.564,252.229Z" transform="translate(-683.07 -251.737)" fill="#fadfb4"/>
          <path id="Path_619442" data-name="Path 619442" d="M684.081,278.2h0c-.352,0-.623-.3-.737-.815-1.046-2.469,1.276-10.822,3.532-13.955a24.851,24.851,0,0,0,3.993-7.733,28.446,28.446,0,0,1,1.261-3.651.5.5,0,0,1,.55-.281c.22.052,2.129.579,2,4.7-.093,2.8-.892,3.706-2.82,5.888-.866.991-1.943,2.2-3.324,4.011-3.372,4.4-3.445,7.559-3.49,9.444a6.33,6.33,0,0,1-.123,1.356C684.817,277.515,684.634,278.2,684.081,278.2Zm8.734-25.237a31.063,31.063,0,0,0-.993,2.992A25.839,25.839,0,0,1,687.681,264a23.736,23.736,0,0,0-2.976,7.391,18.142,18.142,0,0,1,3.048-5.636c1.4-1.828,2.486-3.066,3.364-4.062,1.868-2.109,2.493-2.823,2.571-5.276C693.757,254.246,693.2,253.329,692.815,252.958Z" transform="translate(-683.085 -251.752)" fill="#cc9263"/>
        </g>
        <g id="Group_878100" data-name="Group 878100" transform="translate(78.187)">
          <path id="Path_619443" data-name="Path 619443" d="M693.206,195.171s-.739,5.793,5.425,16.395,14.793,13.072,30.2,19.974,20.713,15.287,20.588,16.03-.863-.247-.863-.247c-9.123-13.684-34.89-17.751-45.369-27.741s-12.205-18-12.453-22.683a19.962,19.962,0,0,1,1.85-8.879s1.108-1.847.984,1.975A42.162,42.162,0,0,1,693.206,195.171Z" transform="translate(-690.227 -187.08)" fill="#fadfb4"/>
          <path id="Path_619444" data-name="Path 619444" d="M749.226,248.349c-.436,0-.841-.45-1.043-.72-5.163-7.734-15.681-12.353-25.857-16.812-7.672-3.359-14.922-6.537-19.458-10.862-7.961-7.587-12.2-15.328-12.6-23.017a20.3,20.3,0,0,1,1.9-9.123c.14-.239.483-.721.97-.721a.736.736,0,0,1,.526.228c.245.256.49.773.428,2.7a42.1,42.1,0,0,1-.376,5.251c-.006.031-.62,5.771,5.365,16.06,5.222,8.983,12.256,12.042,23.911,17.1,1.9.827,3.914,1.7,6.069,2.666,14.916,6.688,21.092,15.232,20.874,16.559A.72.72,0,0,1,749.226,248.349Zm-56.2-60.064,0,.006a19.557,19.557,0,0,0-1.777,8.6c.389,7.427,4.528,14.946,12.3,22.354,4.418,4.207,11.584,7.351,19.177,10.675,7.258,3.183,14.692,6.44,20.308,10.872A60.42,60.42,0,0,0,728.648,232c-2.148-.962-4.162-1.834-6.057-2.661C710.754,224.2,703.6,221.1,698.22,211.834c-6.176-10.627-5.518-16.466-5.487-16.71a40.651,40.651,0,0,0,.366-5.133A8.345,8.345,0,0,0,693.031,188.285Z" transform="translate(-690.242 -187.095)" fill="#cc9263"/>
        </g>
        <g id="Group_878101" data-name="Group 878101" transform="translate(84.576 69.981)">
          <path id="Path_619445" data-name="Path 619445" d="M697.453,262.855a38.269,38.269,0,0,0,7.152,15.411c5.917,7.768,18.742,12.7,21.453,25.147,0,0,.368.991.863.13s-3.082-10.237-9.745-15.659-16.145-18.123-20.215-32.426A31.438,31.438,0,0,0,697.453,262.855Z" transform="translate(-696.425 -254.967)" fill="#fadfb4"/>
          <path id="Path_619446" data-name="Path 619446" d="M726.522,304.4h0c-.585,0-.861-.663-.911-.793-1.749-8-7.624-12.785-13.3-17.4a48.04,48.04,0,0,1-8.086-7.627,38.379,38.379,0,0,1-7.244-15.631,31.293,31.293,0,0,1-.5-7.5.5.5,0,0,1,.97-.107c3.847,13.533,13,26.43,20.055,32.179,6.586,5.366,10.557,15.057,9.854,16.283A.984.984,0,0,1,726.522,304.4Zm-.386-2.682c.138.461.262.928.371,1.406A6.879,6.879,0,0,0,726.137,301.72ZM697.46,258.663a23.027,23.027,0,0,0,.49,4.1,38.151,38.151,0,0,0,7.064,15.22,47.379,47.379,0,0,0,7.92,7.458c3.33,2.706,6.924,5.636,9.655,9.331a28.813,28.813,0,0,0-5.707-6.49C710.245,282.877,701.78,271.251,697.46,258.663Z" transform="translate(-696.44 -254.982)" fill="#cc9263"/>
        </g>
        <g id="Group_878102" data-name="Group 878102" transform="translate(60.765 87.599)">
          <path id="Path_619447" data-name="Path 619447" d="M699.761,276.592a24,24,0,0,0-.237-3.87c-.053-.4-.568,0-.585.259-.259,5.186-1.24,9.759-4.064,14.18-2.171,3.392-5.1,6.457-7.638,9.579-.481.591-.947,1.214-1.39,1.85-3.416,2.469-6.716,5.051-9.174,8.55-2.089,2.969-3.928,8.116-2.106,11.53.1.186.354-.062.354-.2-.087-7.408,4.062-11.734,8.724-16.014a13.085,13.085,0,0,0-.726,9.8c.115.332.605-.095.591-.326-.033-.495-.036-.973-.033-1.451.663-3.644,1.242-6.986,3.445-10.259,2.438-3.629,6.287-6.441,9.2-9.681,3.229-3.582,4.358-9.05,4.337-13.7C700.464,276.4,700.1,276.412,699.761,276.592Z" transform="translate(-673.326 -272.058)" fill="#fadfb4"/>
          <path id="Path_619448" data-name="Path 619448" d="M674.684,319.248a.605.605,0,0,1-.535-.332c-1.875-3.521-.207-8.713,2.135-12.049a37.73,37.73,0,0,1,9.227-8.611c.433-.63.895-1.238,1.362-1.811.757-.934,1.549-1.863,2.35-2.8a63.693,63.693,0,0,0,5.254-6.744c2.494-3.9,3.689-8.072,3.987-13.938a1.021,1.021,0,0,1,.923-.895.652.652,0,0,1,.644.6,26.253,26.253,0,0,1,.244,3.335.785.785,0,0,1,.7.849c.011,2.711-.4,9.506-4.467,14.028-1.119,1.243-2.384,2.436-3.613,3.589a37.791,37.791,0,0,0-5.549,6.035c-2.112,3.139-2.7,6.435-3.335,9.922l-.029.152c0,.382.005.849.034,1.328a.872.872,0,0,1-.27.647.931.931,0,0,1-.661.326h0a.631.631,0,0,1-.613-.449,12.741,12.741,0,0,1-.014-8.156c-4.015,3.858-7.1,7.863-7.025,14.208a.792.792,0,0,1-.236.534A.729.729,0,0,1,674.684,319.248Zm24.58-44.193A26.278,26.278,0,0,1,695.3,287.44a63.859,63.859,0,0,1-5.333,6.845c-.793.934-1.58,1.857-2.334,2.784-.47.574-.931,1.188-1.367,1.817a.656.656,0,0,1-.115.117c-3.223,2.329-6.575,4.9-9.064,8.431-1.564,2.228-3.307,6.3-2.6,9.534.433-6.62,4.269-10.67,8.842-14.861a.49.49,0,0,1,.782.557A13.153,13.153,0,0,0,683,310.647c0-.057,0-.112,0-.163l.037-.231c.646-3.595,1.265-6.986,3.486-10.3a38.253,38.253,0,0,1,5.692-6.2c1.215-1.141,2.47-2.322,3.557-3.538,3.749-4.156,4.207-10.45,4.216-13.167a.511.511,0,0,1-.47-.023.5.5,0,0,1-.233-.433C699.3,276.084,699.286,275.572,699.264,275.054Z" transform="translate(-673.341 -272.073)" fill="#cc9263"/>
        </g>
        <g id="Group_878103" data-name="Group 878103" transform="translate(84.854 104.4)">
          <path id="Path_619449" data-name="Path 619449" d="M698.033,289.093c-.057-.557-.849-.023-.846.366.036,5.338,2.314,9.512,5.2,13.87a60.612,60.612,0,0,1,7.2,14.321c.1.293.56-.079.534-.3C708.945,306.592,699.13,299.842,698.033,289.093Z" transform="translate(-696.694 -288.356)" fill="#fadfb4"/>
          <path id="Path_619450" data-name="Path 619450" d="M709.747,318.267h0a.632.632,0,0,1-.607-.439A60.15,60.15,0,0,0,702,303.614c-3.24-4.877-5.253-8.944-5.287-14.135a1.086,1.086,0,0,1,.338-.737,1.182,1.182,0,0,1,.781-.371.709.709,0,0,1,.709.687c.539,5.282,3.3,9.691,5.973,13.966,2.711,4.331,5.521,8.82,6.125,14.293a.832.832,0,0,1-.233.624A.949.949,0,0,1,709.747,318.267Zm-12.034-27.921c.239,4.522,2.143,8.262,5.1,12.723a63.011,63.011,0,0,1,6.513,12.379c-.953-4.392-3.338-8.206-5.658-11.907C701.139,299.5,698.526,295.318,697.713,290.346Z" transform="translate(-696.709 -288.371)" fill="#cc9263"/>
        </g>
        <g id="Group_878104" data-name="Group 878104" transform="translate(108.565 106.043)">
          <path id="Path_619451" data-name="Path 619451" d="M733.231,300.26c-3.1-4.19-8.561-7.233-12.905-9.8-.385-.23.1,1.6.485,1.9,3.212,2.458,6.176,3.245,9.292,6.57,3.235,3.448,6.216,9.483,7.38,13.989.078.3.557-.085.54-.3A23.463,23.463,0,0,0,733.231,300.26Z" transform="translate(-719.697 -289.95)" fill="#fadfb4"/>
          <path id="Path_619452" data-name="Path 619452" d="M737.627,313.532h0a.613.613,0,0,1-.6-.478c-1.071-4.14-3.912-10.2-7.264-13.775a22.188,22.188,0,0,0-5.554-4.145,33.081,33.081,0,0,1-3.676-2.374,3.356,3.356,0,0,1-.781-2.4.574.574,0,0,1,.843-.309l.906.535c4.308,2.542,9.19,5.411,12.143,9.4a23.784,23.784,0,0,1,4.89,12.611.849.849,0,0,1-.25.618A.938.938,0,0,1,737.627,313.532Zm-16.783-22.184a2.087,2.087,0,0,0,.295.641,32.517,32.517,0,0,0,3.564,2.295,23.086,23.086,0,0,1,5.777,4.32,36.181,36.181,0,0,1,6.794,11.912,23.251,23.251,0,0,0-4.427-9.945c-2.829-3.831-7.621-6.648-11.854-9.134Z" transform="translate(-719.711 -289.965)" fill="#cc9263"/>
        </g>
        <g id="Group_878105" data-name="Group 878105" transform="translate(79.119 49.02)">
          <path id="Path_619453" data-name="Path 619453" d="M757.854,288.99c-4.036-14.168-21.574-17.413-33.562-21.8-7.751-2.84-15.487-5.686-21.711-11.283-6.164-5.541-8.535-12.931-10.5-20.688-.062-.264-.467.079-.461.254.478,15.063,9.508,24.872,22.96,30.451,14.835,6.154,35.491,6.761,42.626,23.5C757.372,289.806,757.944,289.3,757.854,288.99Z" transform="translate(-691.131 -234.633)" fill="#fadfb4"/>
          <path id="Path_619454" data-name="Path 619454" d="M757.408,290.074h0a.682.682,0,0,1-.636-.433c-5.152-12.093-17.611-15.653-29.653-19.1A121.019,121.019,0,0,1,714.41,266.4c-14.773-6.124-22.819-16.812-23.264-30.89a.813.813,0,0,1,.259-.573.862.862,0,0,1,.594-.288.594.594,0,0,1,.579.467c1.839,7.29,4.151,14.877,10.344,20.446s14,8.415,21.554,11.182c1.93.709,3.979,1.372,6.153,2.087,11.37,3.706,24.259,7.908,27.715,20.041a.87.87,0,0,1-.182.775A.978.978,0,0,1,757.408,290.074Zm-65.114-52.152c1.243,12.459,8.975,21.959,22.5,27.566a116.374,116.374,0,0,0,12.6,4.107c11.657,3.335,23.7,6.777,29.445,17.869-4-10.355-15.929-14.247-26.518-17.7-2.177-.708-4.236-1.383-6.181-2.093-7.644-2.8-15.552-5.691-21.874-11.372C696.6,251.2,694.091,244.542,692.293,237.922Z" transform="translate(-691.146 -234.648)" fill="#cc9263"/>
        </g>
        <g id="Group_878106" data-name="Group 878106" transform="translate(76.858 33.26)">
          <path id="Path_619455" data-name="Path 619455" d="M690.313,219.986c-.132-.394-.687.09-.726.314-2,11.744,15.819,14.473,17.957,25.345.1.539.848.028.824-.361C707.7,233.891,693.728,230.071,690.313,219.986Z" transform="translate(-688.938 -219.345)" fill="#fadfb4"/>
          <path id="Path_619456" data-name="Path 619456" d="M707.8,246.387h0a.731.731,0,0,1-.726-.636c-.939-4.753-5.1-7.976-9.118-11.087-4.907-3.8-9.984-7.733-8.847-14.427a1.21,1.21,0,0,1,1.035-.877.68.68,0,0,1,.649.483c1.479,4.376,5.113,7.633,8.628,10.783,4.461,4,9.069,8.133,9.452,14.641a1.033,1.033,0,0,1-.3.748A1.125,1.125,0,0,1,707.8,246.387Zm-17.762-25.738c-.895,5.939,3.681,9.483,8.524,13.234,3.945,3.054,8.018,6.21,9.289,10.89-.56-5.766-4.7-9.484-9.089-13.409C695.289,228.241,691.692,225.023,690.042,220.649Z" transform="translate(-688.953 -219.36)" fill="#cc9263"/>
        </g>
      </g>
      <path id="Path_619457" data-name="Path 619457" d="M693.133,87a92.512,92.512,0,0,1,3.313,22.467,22.76,22.76,0,0,0,1.406-6.909c-.017.049-.031.1-.047.143,0,0,.661-12.985-4.272-20.384,0,0-1.823-2.713-2.695-.3C692.169,82.978,692.745,85.642,693.133,87Z" transform="translate(2.358 0.262)" fill="#5b9834" opacity="0.5" style="mix-blend-mode: multiply;isolation: isolate"/>
      <path id="Path_619458" data-name="Path 619458" d="M724,73.531c-3.779,1.478-10.518,7.232-10.518,7.232s-.99.885-2.486,2.411c.4.339.574.993.355,2.071a21.755,21.755,0,0,1-2.452,5.67c-1.333,2.551-2.666,5.108-3.836,7.74-5.354,12.084-6.052,24.969-6.373,38a178.588,178.588,0,0,1-4.95,37.016c-.889,3.712-.708,8.056-4.679,9.814a13.415,13.415,0,0,1-2.475.824c-.695,3.712-1.339,7.214-1.87,10.374-2.467,14.63-1.313,24.494,2.795,45.373s11.18,36.493,11.013,44.874-4.6,22.847-.495,31.071a59.474,59.474,0,0,1,.661-19.4c2.135-10.356,3.614-17.588-2.467-40.109s-7.562-39.614-2.8-65.917,8.547-45.863,7.889-58.849,2.138-30.412,11.834-43.4,11.671-14.136,11.671-14.136S727.787,72.05,724,73.531Z" transform="translate(2.129 0.015)" fill="#5b9834" opacity="0.5" style="mix-blend-mode: multiply;isolation: isolate"/>
      <g id="Group_878108" data-name="Group 878108" transform="translate(685.059 182.09)">
        <path id="Path_619459" data-name="Path 619459" d="M693.431,187.291c.4-2.231.8-4.393,1.184-6.525a10.131,10.131,0,0,1-7.7-1.476c-.821,4.362-1.58,8.457-2.2,12.109-2.467,14.63-1.313,24.494,2.795,45.373s11.18,36.493,11.013,44.874-4.6,22.847-.495,31.071a59.474,59.474,0,0,1,.661-19.4c2.135-10.356,3.614-17.588-2.467-40.109S688.665,213.594,693.431,187.291Z" transform="translate(-682.93 -178.797)" fill="#e7b883"/>
        <path id="Path_619460" data-name="Path 619460" d="M698.048,313.22a.5.5,0,0,1-.441-.275c-2.911-5.827-1.655-14.551-.543-22.251a80.234,80.234,0,0,0,.984-9.045c.088-4.348-1.834-10.76-4.264-18.877-2.135-7.138-4.8-16.013-6.739-25.9-4.232-21.5-5.234-31.1-2.795-45.544.627-3.746,1.426-8.038,2.191-12.121a.5.5,0,0,1,.311-.366.486.486,0,0,1,.47.062,8.844,8.844,0,0,0,5.29,1.57,11.417,11.417,0,0,0,2.033-.183.486.486,0,0,1,.434.141.473.473,0,0,1,.137.436l-1.183,6.518c-5.029,27.726-2.784,45.083,2.783,65.7,6.12,22.662,4.59,30.075,2.473,40.334a59.481,59.481,0,0,0-.656,19.22.5.5,0,0,1-.332.55A.724.724,0,0,1,698.048,313.22ZM687.28,180.128c-.726,3.856-1.466,7.852-2.059,11.368-2.407,14.292-1.415,23.821,2.789,45.189,1.941,9.837,4.587,18.691,6.721,25.8,2.452,8.207,4.393,14.686,4.3,19.186a81.318,81.318,0,0,1-1,9.157c-.833,5.759-1.744,12.109-.906,17.256a61,61,0,0,1,1.089-14.856c2.093-10.129,3.6-17.447-2.456-39.878-5.608-20.755-7.865-38.231-2.8-66.136l1.061-5.844A10.8,10.8,0,0,1,687.28,180.128Z" transform="translate(-682.945 -178.812)" fill="#ad7e48"/>
      </g>
      <path id="Path_619461" data-name="Path 619461" d="M687.063,214.7c.327,12.076,3.291,23.478,6.649,35.008a192.288,192.288,0,0,1,6.7,30.789c.211-6.367-.771-14.28-4.3-27.335-6.083-22.521-7.562-39.614-2.8-65.916.4-2.231.8-4.393,1.184-6.525a11.774,11.774,0,0,1-3.909.04A146.366,146.366,0,0,0,687.063,214.7Z" transform="translate(2.24 3.337)" fill="#e7b883" style="mix-blend-mode: multiply;isolation: isolate"/>
      <path id="Path_619462" data-name="Path 619462" d="M686.818,185.254c-.511,4.449-1.8,8.741-2.19,13.246a99.187,99.187,0,0,0,.244,15.511c.015.192.287.006.29-.129.047-5.818.008-11.579.487-17.387.315-3.783,1.471-7.571,1.518-11.354C687.169,184.929,686.835,185.111,686.818,185.254Z" transform="translate(2.16 3.471)" fill="#fff8bb" opacity="0.7" style="mix-blend-mode: screen;isolation: isolate"/>
      <path id="Path_619463" data-name="Path 619463" d="M662.414,219.6c-1.794,2.835-2.21,5.855-2.857,9.112a60.426,60.426,0,0,1-6.162,16.216c-.129.236.228.186.312.016,1.985-3.78,4.269-7.593,5.518-11.7,1.344-4.4,1.457-9.438,3.487-13.572C662.83,219.445,662.51,219.457,662.414,219.6Z" transform="translate(1.202 4.533)" fill="#fff8bb" opacity="0.7" style="mix-blend-mode: screen;isolation: isolate"/>
      <path id="Path_619464" data-name="Path 619464" d="M668.4,258.589a50.308,50.308,0,0,0-5.748,10.035c-.146.331.287.314.427.095,2.05-3.222,3.625-6.739,5.625-10C668.873,258.448,668.552,258.387,668.4,258.589Z" transform="translate(1.488 5.736)" fill="#fff8bb" opacity="0.7" style="mix-blend-mode: screen;isolation: isolate"/>
      <path id="Path_619465" data-name="Path 619465" d="M708.55,279.394a89.319,89.319,0,0,1-5.691-7.374c-.107-.146-.411.129-.327.264,1.614,2.762,2.965,5.647,5.709,7.481C708.4,279.866,708.685,279.535,708.55,279.394Z" transform="translate(2.718 6.152)" fill="#fff8bb" opacity="0.7" style="mix-blend-mode: screen;isolation: isolate"/>
      <path id="Path_619466" data-name="Path 619466" d="M709.814,261.674a57.4,57.4,0,0,1-5.292-3.284c-.143-.107-.422.163-.285.287a19.817,19.817,0,0,0,5.313,3.375C709.736,262.13,710.017,261.793,709.814,261.674Z" transform="translate(2.77 5.732)" fill="#fff8bb" opacity="0.7" style="mix-blend-mode: screen;isolation: isolate"/>
      <path id="Path_619467" data-name="Path 619467" d="M701.674,234.792a46.583,46.583,0,0,0-4.325-3.561c-1.465-1.1-2.753-2.436-4.187-3.572-.143-.118-.42.158-.285.281,2.753,2.531,5.263,5.265,8.53,7.183C701.548,235.208,701.806,234.921,701.674,234.792Z" transform="translate(2.42 4.784)" fill="#fff8bb" opacity="0.7" style="mix-blend-mode: screen;isolation: isolate"/>
      <path id="Path_619468" data-name="Path 619468" d="M691.617,84.236c-.039-.187-.365.03-.348.178.667,6.055,1.958,12.007,2.132,18.114.011.228.338.02.351-.133C694.239,96.209,692.968,90.234,691.617,84.236Z" transform="translate(2.371 0.359)" fill="#84bc32" style="mix-blend-mode: screen;isolation: isolate"/>
    </g>
  </g>
</svg>
